# xmcd CD database file
#
# Track frame offsets:
#	150
#	19362
#	34762
#	58125
#	88150
#	109250
#	120887
#	149762
#	176762
#	202337
#	229087
#	248262
#	265312
#
# Disc length: 3886 seconds
#
# Revision: 0
# Processed by: cddbd v1.5.2PL0 Copyright (c) Steve Scherf et al.
# Submitted via: CDex 1.70beta1
#
DISCID=be0f2c0d
DTITLE=MESA - REQUIEM
DYEAR=2000
DGENRE=New Age
TTITLE0=REQUIEM
TTITLE1=NATIVE DANCE
TTITLE2=WATTO PRAKEO
TTITLE3=LA REVOLUTION
TTITLE4=BLACE SEA, BLACK ANGEL
TTITLE5=PANDORA'S BOX
TTITLE6=MESA～AIOI
TTITLE7=PURENESS
TTITLE8=COTTON FILED
TTITLE9=ENERGY
TTITLE10=A WAY IN THE MANGER
TTITLE11=AMUSEMENT PARK
TTITLE12=MAHOBA
EXTD=YEAR: 2000
EXTT0=
EXTT1=
EXTT2=
EXTT3=
EXTT4=
EXTT5=
EXTT6=
EXTT7=
EXTT8=
EXTT9=
EXTT10=
EXTT11=
EXTT12=
PLAYORDER=
